<svg xmlns="http://www.w3.org/2000/svg" version="1.1" xmlns:xlink="http://www.w3.org/1999/xlink" width="1000" height="1000"><g clip-path="url(#SvgjsClipPath1087)"><rect width="1000" height="1000" fill="#0541af"></rect><g transform="matrix(4.090909090909091,0,0,4.090909090909091,50,50)"><svg xmlns="http://www.w3.org/2000/svg" version="1.1" xmlns:xlink="http://www.w3.org/1999/xlink" width="220" height="220"><svg width="220" height="220" viewBox="0 0 220 220" fill="none" xmlns="http://www.w3.org/2000/svg">
<circle cx="110" cy="110" r="110" fill="url(#paint0_radial_0_1)"></circle>
<path d="M181.127 83.2891H145.353C144.7 78.6607 143.366 74.5497 141.351 70.956C139.336 67.3078 136.75 64.2041 133.592 61.6449C130.433 59.0857 126.785 57.1255 122.647 55.7642C118.563 54.4029 114.125 53.7223 109.334 53.7223C100.676 53.7223 93.1347 55.8731 86.7095 60.1747C80.2843 64.4219 75.3021 70.6293 71.7628 78.7969C68.2235 86.91 66.4538 96.7656 66.4538 108.364C66.4538 120.288 68.2235 130.307 71.7628 138.42C75.3565 146.534 80.366 152.659 86.7912 156.798C93.2164 160.936 100.649 163.005 109.089 163.005C113.826 163.005 118.209 162.379 122.239 161.126C126.322 159.874 129.943 158.05 133.102 155.654C136.26 153.204 138.873 150.236 140.942 146.751C143.066 143.267 144.536 139.292 145.353 134.827L181.127 134.99C180.201 142.668 177.887 150.073 174.185 157.206C170.536 164.285 165.609 170.628 159.401 176.237C153.248 181.79 145.897 186.201 137.349 189.468C128.854 192.681 119.244 194.287 108.517 194.287C93.5975 194.287 80.2571 190.911 68.4957 184.159C56.7888 177.407 47.5322 167.633 40.7259 154.837C33.974 142.041 30.598 126.55 30.598 108.364C30.598 90.1226 34.0284 74.6042 40.8892 61.8082C47.75 49.0123 57.0611 39.2656 68.8224 32.5682C80.5838 25.8163 93.8153 22.4403 108.517 22.4403C118.209 22.4403 127.194 23.8016 135.47 26.5241C143.801 29.2467 151.179 33.2216 157.604 38.4489C164.03 43.6217 169.257 49.9652 173.286 57.4794C177.37 64.9936 179.984 73.5968 181.127 83.2891Z" fill="white"></path>
<path d="M94.0341 128.669C91.772 128.669 89.7562 128.277 87.9865 127.492C86.2169 126.692 84.8165 125.515 83.7855 123.961C82.7699 122.391 82.2621 120.437 82.2621 118.098C82.2621 116.128 82.6237 114.474 83.3469 113.135C84.0702 111.796 85.055 110.719 86.3015 109.903C87.5479 109.088 88.9637 108.472 90.5487 108.057C92.149 107.641 93.8263 107.349 95.5806 107.18C97.6426 106.964 99.3046 106.764 100.566 106.58C101.828 106.379 102.744 106.087 103.313 105.702C103.883 105.318 104.167 104.748 104.167 103.994V103.856C104.167 102.394 103.706 101.263 102.782 100.463C101.874 99.6625 100.582 99.2624 98.9045 99.2624C97.1348 99.2624 95.7268 99.6548 94.6804 100.44C93.634 101.209 92.9415 102.179 92.603 103.348L83.5085 102.609C83.9702 100.455 84.8781 98.593 86.2322 97.0234C87.5864 95.4384 89.333 94.2228 91.4719 93.3764C93.6263 92.5147 96.1192 92.0838 98.9506 92.0838C100.92 92.0838 102.805 92.3146 104.606 92.7763C106.422 93.2379 108.03 93.9535 109.43 94.9229C110.846 95.8924 111.961 97.1388 112.777 98.6623C113.593 100.17 114 101.978 114 104.087V128H104.675V123.083H104.398C103.829 124.191 103.067 125.169 102.113 126.015C101.159 126.846 100.012 127.5 98.6737 127.977C97.3349 128.439 95.7884 128.669 94.0341 128.669ZM96.8501 121.883C98.2966 121.883 99.5739 121.598 100.682 121.029C101.79 120.444 102.659 119.66 103.29 118.675C103.921 117.69 104.237 116.574 104.237 115.328V111.565C103.929 111.765 103.506 111.95 102.967 112.119C102.444 112.273 101.851 112.419 101.19 112.558C100.528 112.681 99.8662 112.796 99.2045 112.904C98.5429 112.996 97.9427 113.081 97.4041 113.158C96.25 113.327 95.2421 113.597 94.3803 113.966C93.5186 114.335 92.8492 114.835 92.3722 115.466C91.8951 116.082 91.6566 116.851 91.6566 117.775C91.6566 119.113 92.1413 120.137 93.1108 120.844C94.0956 121.537 95.3421 121.883 96.8501 121.883ZM121.629 128V92.5455H131.462V128H121.629ZM126.569 87.9751C125.107 87.9751 123.853 87.4904 122.806 86.5209C121.775 85.5361 121.26 84.3589 121.26 82.9893C121.26 81.6352 121.775 80.4734 122.806 79.5039C123.853 78.5191 125.107 78.0266 126.569 78.0266C128.031 78.0266 129.277 78.5191 130.308 79.5039C131.354 80.4734 131.878 81.6352 131.878 82.9893C131.878 84.3589 131.354 85.5361 130.308 86.5209C129.277 87.4904 128.031 87.9751 126.569 87.9751Z" fill="#FCF9F7"></path>
<defs>
<radialGradient id="paint0_radial_0_1" cx="0" cy="0" r="1" gradientUnits="userSpaceOnUse" gradientTransform="translate(110 110) rotate(-70.0169) scale(64.3758 64.9974)">
<stop offset="0.293269" stop-color="#D6950A"></stop>
<stop offset="0.442308" stop-color="#D6950A"></stop>
<stop offset="0.593985" stop-color="#D6950A"></stop>
<stop offset="0.614341" stop-color="#0541AF"></stop>
</radialGradient>
<clipPath id="SvgjsClipPath1087"><rect width="1000" height="1000" x="0" y="0" rx="150" ry="150"></rect></clipPath></defs>
</svg></svg></g></g></svg>